<svg xmlns="http://www.w3.org/2000/svg" xmlns:xlink="http://www.w3.org/1999/xlink" viewBox="0 0 16 17.5" version="1.1" x="0px" y="0px"><title>Favorite </title><g stroke="none" stroke-width="1" fill="none" fill-rule="evenodd"><path d="M1.31884414,1.31802533 C-0.43841801,3.07528747 -0.43841801,5.92486996 1.31884414,7.68213211 L7.65231194,13.8585442 C7.84651967,14.0479343 8.15631861,14.0479221 8.35051138,13.8585166 L14.6785114,7.68651658 C16.4412508,5.92495723 16.4412508,3.0762002 14.6828378,1.31891221 C12.9256888,-0.438236819 10.0761063,-0.438236819 8.31884414,1.31902533 L8.14890103,1.50074104 L8.00101942,1.67968999 L7.85257603,1.49892968 L7.68232014,1.31739567 C5.9805835,-0.384342053 3.25313785,-0.437521357 1.48672093,1.15843021 L1.31884414,1.31802533 Z M6.97584414,2.02513211 C7.19495231,2.24346166 7.3793168,2.5042445 7.5621458,2.84044672 C7.75148622,3.18862272 8.25130883,3.18862272 8.44064925,2.84044672 C8.62252298,2.50600113 8.80723817,2.24484485 9.02595092,2.02613211 C10.3926888,0.659394254 12.6091063,0.659394254 13.9758441,2.02613211 L14.1171499,2.17574685 C15.3417999,3.55010656 15.2947019,5.65701135 13.9759573,6.97491221 L8.00101942,12.80169 L2.02148311,6.97061328 C0.659213063,5.60828747 0.659213063,3.39186996 2.02595092,2.02513211 C3.39268877,0.658394254 5.60910628,0.658394254 6.97584414,2.02513211 Z" fill="#000000" fill-rule="nonzero"/></g><text x="0" y="29" fill="#000000" font-size="5px" font-weight="bold" font-family="'Helvetica Neue', Helvetica, Arial-Unicode, Arial, Sans-serif">Created by Naz</text><text x="0" y="34" fill="#000000" font-size="5px" font-weight="bold" font-family="'Helvetica Neue', Helvetica, Arial-Unicode, Arial, Sans-serif">from the Noun Project</text></svg>